{
    "asset" : {
        "generator" : "Khronos glTF Blender I/O v3.3.27",
        "version" : "2.0"
    },
    "scene" : 0,
    "scenes" : [
        {
            "name" : "Scene",
            "nodes" : [
                6
            ]
        }
    ],
    "nodes" : [
        {
            "name" : "Bone.003",
            "translation" : [
                0,
                1.0528959035873413,
                0
            ]
        },
        {
            "children" : [
                0
            ],
            "name" : "Bone.002",
            "rotation" : [
                0,
                1.4210854715202004e-14,
                0,
                1
            ],
            "translation" : [
                0,
                0.9375790357589722,
                0
            ]
        },
        {
            "children" : [
                1
            ],
            "name" : "Bone.001",
            "rotation" : [
                0,
                1.1920927533992653e-07,
                0,
                1
            ],
            "scale" : [
                1,
                0.9999999403953552,
                1
            ],
            "translation" : [
                0,
                1.0000001192092896,
                0
            ]
        },
        {
            "children" : [
                2
            ],
            "name" : "Bone"
        },
        {
            "name" : "neutral_bone",
            "rotation" : [
                -0.7071068286895752,
                0,
                0,
                0.7071068286895752
            ]
        },
        {
            "mesh" : 0,
            "name" : "Cylinder.001",
            "skin" : 0
        },
        {
            "children" : [
                5,
                3,
                4
            ],
            "name" : "Armature",
            "scale" : [
                3.90861177444458,
                3.90861177444458,
                3.90861177444458
            ],
            "translation" : [
                0,
                0.2096874862909317,
                0
            ]
        }
    ],
    "animations" : [
        {
            "channels" : [
                {
                    "sampler" : 0,
                    "target" : {
                        "node" : 3,
                        "path" : "translation"
                    }
                },
                {
                    "sampler" : 1,
                    "target" : {
                        "node" : 3,
                        "path" : "rotation"
                    }
                },
                {
                    "sampler" : 2,
                    "target" : {
                        "node" : 3,
                        "path" : "scale"
                    }
                },
                {
                    "sampler" : 3,
                    "target" : {
                        "node" : 2,
                        "path" : "translation"
                    }
                },
                {
                    "sampler" : 4,
                    "target" : {
                        "node" : 2,
                        "path" : "rotation"
                    }
                },
                {
                    "sampler" : 5,
                    "target" : {
                        "node" : 2,
                        "path" : "scale"
                    }
                },
                {
                    "sampler" : 6,
                    "target" : {
                        "node" : 1,
                        "path" : "translation"
                    }
                },
                {
                    "sampler" : 7,
                    "target" : {
                        "node" : 1,
                        "path" : "rotation"
                    }
                },
                {
                    "sampler" : 8,
                    "target" : {
                        "node" : 1,
                        "path" : "scale"
                    }
                },
                {
                    "sampler" : 9,
                    "target" : {
                        "node" : 0,
                        "path" : "translation"
                    }
                },
                {
                    "sampler" : 10,
                    "target" : {
                        "node" : 0,
                        "path" : "rotation"
                    }
                },
                {
                    "sampler" : 11,
                    "target" : {
                        "node" : 0,
                        "path" : "scale"
                    }
                }
            ],
            "name" : "01idle",
            "samplers" : [
                {
                    "input" : 7,
                    "interpolation" : "LINEAR",
                    "output" : 8
                },
                {
                    "input" : 7,
                    "interpolation" : "LINEAR",
                    "output" : 9
                },
                {
                    "input" : 7,
                    "interpolation" : "LINEAR",
                    "output" : 10
                },
                {
                    "input" : 7,
                    "interpolation" : "LINEAR",
                    "output" : 11
                },
                {
                    "input" : 7,
                    "interpolation" : "LINEAR",
                    "output" : 12
                },
                {
                    "input" : 7,
                    "interpolation" : "LINEAR",
                    "output" : 13
                },
                {
                    "input" : 7,
                    "interpolation" : "LINEAR",
                    "output" : 14
                },
                {
                    "input" : 7,
                    "interpolation" : "LINEAR",
                    "output" : 15
                },
                {
                    "input" : 7,
                    "interpolation" : "LINEAR",
                    "output" : 16
                },
                {
                    "input" : 7,
                    "interpolation" : "LINEAR",
                    "output" : 17
                },
                {
                    "input" : 7,
                    "interpolation" : "LINEAR",
                    "output" : 18
                },
                {
                    "input" : 7,
                    "interpolation" : "LINEAR",
                    "output" : 19
                }
            ]
        },
        {
            "channels" : [
                {
                    "sampler" : 0,
                    "target" : {
                        "node" : 3,
                        "path" : "translation"
                    }
                },
                {
                    "sampler" : 1,
                    "target" : {
                        "node" : 3,
                        "path" : "rotation"
                    }
                },
                {
                    "sampler" : 2,
                    "target" : {
                        "node" : 3,
                        "path" : "scale"
                    }
                },
                {
                    "sampler" : 3,
                    "target" : {
                        "node" : 2,
                        "path" : "translation"
                    }
                },
                {
                    "sampler" : 4,
                    "target" : {
                        "node" : 2,
                        "path" : "rotation"
                    }
                },
                {
                    "sampler" : 5,
                    "target" : {
                        "node" : 2,
                        "path" : "scale"
                    }
                },
                {
                    "sampler" : 6,
                    "target" : {
                        "node" : 1,
                        "path" : "translation"
                    }
                },
                {
                    "sampler" : 7,
                    "target" : {
                        "node" : 1,
                        "path" : "rotation"
                    }
                },
                {
                    "sampler" : 8,
                    "target" : {
                        "node" : 1,
                        "path" : "scale"
                    }
                },
                {
                    "sampler" : 9,
                    "target" : {
                        "node" : 0,
                        "path" : "translation"
                    }
                },
                {
                    "sampler" : 10,
                    "target" : {
                        "node" : 0,
                        "path" : "rotation"
                    }
                },
                {
                    "sampler" : 11,
                    "target" : {
                        "node" : 0,
                        "path" : "scale"
                    }
                }
            ],
            "name" : "hit",
            "samplers" : [
                {
                    "input" : 20,
                    "interpolation" : "LINEAR",
                    "output" : 21
                },
                {
                    "input" : 20,
                    "interpolation" : "LINEAR",
                    "output" : 22
                },
                {
                    "input" : 20,
                    "interpolation" : "LINEAR",
                    "output" : 23
                },
                {
                    "input" : 20,
                    "interpolation" : "LINEAR",
                    "output" : 24
                },
                {
                    "input" : 20,
                    "interpolation" : "LINEAR",
                    "output" : 25
                },
                {
                    "input" : 20,
                    "interpolation" : "LINEAR",
                    "output" : 26
                },
                {
                    "input" : 20,
                    "interpolation" : "LINEAR",
                    "output" : 27
                },
                {
                    "input" : 20,
                    "interpolation" : "LINEAR",
                    "output" : 28
                },
                {
                    "input" : 20,
                    "interpolation" : "LINEAR",
                    "output" : 29
                },
                {
                    "input" : 20,
                    "interpolation" : "LINEAR",
                    "output" : 30
                },
                {
                    "input" : 20,
                    "interpolation" : "LINEAR",
                    "output" : 31
                },
                {
                    "input" : 20,
                    "interpolation" : "LINEAR",
                    "output" : 32
                }
            ]
        }
    ],
    "materials" : [
        {
            "doubleSided" : true,
            "name" : "Material.008",
            "pbrMetallicRoughness" : {
                "baseColorTexture" : {
                    "index" : 0
                },
                "metallicFactor" : 0,
                "roughnessFactor" : 0.5
            }
        }
    ],
    "meshes" : [
        {
            "name" : "Cylinder.003",
            "primitives" : [
                {
                    "attributes" : {
                        "POSITION" : 0,
                        "NORMAL" : 1,
                        "TEXCOORD_0" : 2,
                        "JOINTS_0" : 3,
                        "WEIGHTS_0" : 4
                    },
                    "indices" : 5,
                    "material" : 0
                }
            ]
        }
    ],
    "textures" : [
        {
            "sampler" : 0,
            "source" : 0
        }
    ],
    "images" : [
        {
            "bufferView" : 6,
            "mimeType" : "image/png",
            "name" : "Stick2 Difuse"
        }
    ],
    "skins" : [
        {
            "inverseBindMatrices" : 6,
            "joints" : [
                3,
                2,
                1,
                0,
                4
            ],
            "name" : "Armature"
        }
    ],
    "accessors" : [
        {
            "bufferView" : 0,
            "componentType" : 5126,
            "count" : 580,
            "max" : [
                0.6625670194625854,
                14.882787704467773,
                0.6407113075256348
            ],
            "min" : [
                -0.6294045448303223,
                0.007327556610107422,
                -0.6512606739997864
            ],
            "type" : "VEC3"
        },
        {
            "bufferView" : 1,
            "componentType" : 5126,
            "count" : 580,
            "type" : "VEC3"
        },
        {
            "bufferView" : 2,
            "componentType" : 5126,
            "count" : 580,
            "type" : "VEC2"
        },
        {
            "bufferView" : 3,
            "componentType" : 5121,
            "count" : 580,
            "type" : "VEC4"
        },
        {
            "bufferView" : 4,
            "componentType" : 5126,
            "count" : 580,
            "type" : "VEC4"
        },
        {
            "bufferView" : 5,
            "componentType" : 5123,
            "count" : 2292,
            "type" : "SCALAR"
        },
        {
            "bufferView" : 7,
            "componentType" : 5126,
            "count" : 5,
            "type" : "MAT4"
        },
        {
            "bufferView" : 8,
            "componentType" : 5126,
            "count" : 1,
            "max" : [
                0.041666666666666664
            ],
            "min" : [
                0.041666666666666664
            ],
            "type" : "SCALAR"
        },
        {
            "bufferView" : 9,
            "componentType" : 5126,
            "count" : 1,
            "type" : "VEC3"
        },
        {
            "bufferView" : 10,
            "componentType" : 5126,
            "count" : 1,
            "type" : "VEC4"
        },
        {
            "bufferView" : 11,
            "componentType" : 5126,
            "count" : 1,
            "type" : "VEC3"
        },
        {
            "bufferView" : 12,
            "componentType" : 5126,
            "count" : 1,
            "type" : "VEC3"
        },
        {
            "bufferView" : 13,
            "componentType" : 5126,
            "count" : 1,
            "type" : "VEC4"
        },
        {
            "bufferView" : 14,
            "componentType" : 5126,
            "count" : 1,
            "type" : "VEC3"
        },
        {
            "bufferView" : 15,
            "componentType" : 5126,
            "count" : 1,
            "type" : "VEC3"
        },
        {
            "bufferView" : 16,
            "componentType" : 5126,
            "count" : 1,
            "type" : "VEC4"
        },
        {
            "bufferView" : 17,
            "componentType" : 5126,
            "count" : 1,
            "type" : "VEC3"
        },
        {
            "bufferView" : 18,
            "componentType" : 5126,
            "count" : 1,
            "type" : "VEC3"
        },
        {
            "bufferView" : 19,
            "componentType" : 5126,
            "count" : 1,
            "type" : "VEC4"
        },
        {
            "bufferView" : 20,
            "componentType" : 5126,
            "count" : 1,
            "type" : "VEC3"
        },
        {
            "bufferView" : 21,
            "componentType" : 5126,
            "count" : 40,
            "max" : [
                1.6666666666666667
            ],
            "min" : [
                0.041666666666666664
            ],
            "type" : "SCALAR"
        },
        {
            "bufferView" : 22,
            "componentType" : 5126,
            "count" : 40,
            "type" : "VEC3"
        },
        {
            "bufferView" : 23,
            "componentType" : 5126,
            "count" : 40,
            "type" : "VEC4"
        },
        {
            "bufferView" : 24,
            "componentType" : 5126,
            "count" : 40,
            "type" : "VEC3"
        },
        {
            "bufferView" : 25,
            "componentType" : 5126,
            "count" : 40,
            "type" : "VEC3"
        },
        {
            "bufferView" : 26,
            "componentType" : 5126,
            "count" : 40,
            "type" : "VEC4"
        },
        {
            "bufferView" : 27,
            "componentType" : 5126,
            "count" : 40,
            "type" : "VEC3"
        },
        {
            "bufferView" : 28,
            "componentType" : 5126,
            "count" : 40,
            "type" : "VEC3"
        },
        {
            "bufferView" : 29,
            "componentType" : 5126,
            "count" : 40,
            "type" : "VEC4"
        },
        {
            "bufferView" : 30,
            "componentType" : 5126,
            "count" : 40,
            "type" : "VEC3"
        },
        {
            "bufferView" : 31,
            "componentType" : 5126,
            "count" : 40,
            "type" : "VEC3"
        },
        {
            "bufferView" : 32,
            "componentType" : 5126,
            "count" : 40,
            "type" : "VEC4"
        },
        {
            "bufferView" : 33,
            "componentType" : 5126,
            "count" : 40,
            "type" : "VEC3"
        }
    ],
    "bufferViews" : [
        {
            "buffer" : 0,
            "byteLength" : 6960,
            "byteOffset" : 0,
            "target" : 34962
        },
        {
            "buffer" : 0,
            "byteLength" : 6960,
            "byteOffset" : 6960,
            "target" : 34962
        },
        {
            "buffer" : 0,
            "byteLength" : 4640,
            "byteOffset" : 13920,
            "target" : 34962
        },
        {
            "buffer" : 0,
            "byteLength" : 2320,
            "byteOffset" : 18560,
            "target" : 34962
        },
        {
            "buffer" : 0,
            "byteLength" : 9280,
            "byteOffset" : 20880,
            "target" : 34962
        },
        {
            "buffer" : 0,
            "byteLength" : 4584,
            "byteOffset" : 30160,
            "target" : 34963
        },
        {
            "buffer" : 0,
            "byteLength" : 185413,
            "byteOffset" : 34744
        },
        {
            "buffer" : 0,
            "byteLength" : 320,
            "byteOffset" : 220160
        },
        {
            "buffer" : 0,
            "byteLength" : 4,
            "byteOffset" : 220480
        },
        {
            "buffer" : 0,
            "byteLength" : 12,
            "byteOffset" : 220484
        },
        {
            "buffer" : 0,
            "byteLength" : 16,
            "byteOffset" : 220496
        },
        {
            "buffer" : 0,
            "byteLength" : 12,
            "byteOffset" : 220512
        },
        {
            "buffer" : 0,
            "byteLength" : 12,
            "byteOffset" : 220524
        },
        {
            "buffer" : 0,
            "byteLength" : 16,
            "byteOffset" : 220536
        },
        {
            "buffer" : 0,
            "byteLength" : 12,
            "byteOffset" : 220552
        },
        {
            "buffer" : 0,
            "byteLength" : 12,
            "byteOffset" : 220564
        },
        {
            "buffer" : 0,
            "byteLength" : 16,
            "byteOffset" : 220576
        },
        {
            "buffer" : 0,
            "byteLength" : 12,
            "byteOffset" : 220592
        },
        {
            "buffer" : 0,
            "byteLength" : 12,
            "byteOffset" : 220604
        },
        {
            "buffer" : 0,
            "byteLength" : 16,
            "byteOffset" : 220616
        },
        {
            "buffer" : 0,
            "byteLength" : 12,
            "byteOffset" : 220632
        },
        {
            "buffer" : 0,
            "byteLength" : 160,
            "byteOffset" : 220644
        },
        {
            "buffer" : 0,
            "byteLength" : 480,
            "byteOffset" : 220804
        },
        {
            "buffer" : 0,
            "byteLength" : 640,
            "byteOffset" : 221284
        },
        {
            "buffer" : 0,
            "byteLength" : 480,
            "byteOffset" : 221924
        },
        {
            "buffer" : 0,
            "byteLength" : 480,
            "byteOffset" : 222404
        },
        {
            "buffer" : 0,
            "byteLength" : 640,
            "byteOffset" : 222884
        },
        {
            "buffer" : 0,
            "byteLength" : 480,
            "byteOffset" : 223524
        },
        {
            "buffer" : 0,
            "byteLength" : 480,
            "byteOffset" : 224004
        },
        {
            "buffer" : 0,
            "byteLength" : 640,
            "byteOffset" : 224484
        },
        {
            "buffer" : 0,
            "byteLength" : 480,
            "byteOffset" : 225124
        },
        {
            "buffer" : 0,
            "byteLength" : 480,
            "byteOffset" : 225604
        },
        {
            "buffer" : 0,
            "byteLength" : 640,
            "byteOffset" : 226084
        },
        {
            "buffer" : 0,
            "byteLength" : 480,
            "byteOffset" : 226724
        }
    ],
    "samplers" : [
        {
            "magFilter" : 9729,
            "minFilter" : 9987
        }
    ],
    "buffers" : [
        {
            "byteLength" : 227204,
            "uri" : "data:application/octet-stream;base64,"
        }
    ]
}
